<svg width="298" height="56" viewBox="0 0 298 56" fill="none" xmlns="http://www.w3.org/2000/svg">
<g clip-path="url(#clip0_1108_1065)">
<path d="M71.731 25.052C71.731 25.9873 71.5164 26.846 71.087 27.628C70.6577 28.3946 69.9984 29.0156 69.109 29.491C68.2197 29.9663 67.1157 30.204 65.797 30.204H63.359V36H59.426V19.854H65.797C67.085 19.854 68.1737 20.0763 69.063 20.521C69.9524 20.9656 70.6194 21.579 71.064 22.361C71.5087 23.143 71.731 24.04 71.731 25.052ZM65.498 27.076C66.2494 27.076 66.809 26.8996 67.177 26.547C67.545 26.1943 67.729 25.696 67.729 25.052C67.729 24.408 67.545 23.9096 67.177 23.557C66.809 23.2043 66.2494 23.028 65.498 23.028H63.359V27.076H65.498Z" fill="white"/>
<path d="M79.6206 36.184C78.3632 36.184 77.2286 35.9156 76.2166 35.379C75.2199 34.8423 74.4302 34.0756 73.8476 33.079C73.2802 32.0823 72.9966 30.917 72.9966 29.583C72.9966 28.2643 73.2879 27.1066 73.8706 26.11C74.4532 25.098 75.2506 24.3236 76.2626 23.787C77.2746 23.2503 78.4092 22.982 79.6666 22.982C80.9239 22.982 82.0586 23.2503 83.0706 23.787C84.0826 24.3236 84.8799 25.098 85.4626 26.11C86.0452 27.1066 86.3366 28.2643 86.3366 29.583C86.3366 30.9016 86.0376 32.067 85.4396 33.079C84.8569 34.0756 84.0519 34.8423 83.0246 35.379C82.0126 35.9156 80.8779 36.184 79.6206 36.184ZM79.6206 32.78C80.3719 32.78 81.0082 32.504 81.5296 31.952C82.0662 31.4 82.3346 30.6103 82.3346 29.583C82.3346 28.5556 82.0739 27.766 81.5526 27.214C81.0466 26.662 80.4179 26.386 79.6666 26.386C78.8999 26.386 78.2636 26.662 77.7576 27.214C77.2516 27.7506 76.9986 28.5403 76.9986 29.583C76.9986 30.6103 77.2439 31.4 77.7346 31.952C78.2406 32.504 78.8692 32.78 79.6206 32.78Z" fill="white"/>
<path d="M92.3561 18.98V36H88.4231V18.98H92.3561Z" fill="white"/>
<path d="M108.316 23.166L100.266 42.095H96.0343L98.9783 35.563L93.7573 23.166H98.1503L101.117 31.193L104.061 23.166H108.316Z" fill="white"/>
<path d="M114.615 22.982C115.519 22.982 116.309 23.166 116.984 23.534C117.674 23.902 118.203 24.385 118.571 24.983V23.166H122.504V35.977C122.504 37.1576 122.266 38.2233 121.791 39.174C121.331 40.14 120.618 40.9066 119.652 41.474C118.701 42.0413 117.513 42.325 116.087 42.325C114.185 42.325 112.644 41.8726 111.464 40.968C110.283 40.0786 109.608 38.8673 109.44 37.334H113.327C113.449 37.8246 113.741 38.208 114.201 38.484C114.661 38.7753 115.228 38.921 115.903 38.921C116.715 38.921 117.359 38.6833 117.835 38.208C118.325 37.748 118.571 37.0043 118.571 35.977V34.16C118.187 34.758 117.658 35.2486 116.984 35.632C116.309 36 115.519 36.184 114.615 36.184C113.557 36.184 112.598 35.9156 111.74 35.379C110.881 34.827 110.199 34.0526 109.693 33.056C109.202 32.044 108.957 30.8786 108.957 29.56C108.957 28.2413 109.202 27.0836 109.693 26.087C110.199 25.0903 110.881 24.3236 111.74 23.787C112.598 23.2503 113.557 22.982 114.615 22.982ZM118.571 29.583C118.571 28.6016 118.295 27.8273 117.743 27.26C117.206 26.6926 116.547 26.409 115.765 26.409C114.983 26.409 114.316 26.6926 113.764 27.26C113.227 27.812 112.959 28.5786 112.959 29.56C112.959 30.5413 113.227 31.3233 113.764 31.906C114.316 32.4733 114.983 32.757 115.765 32.757C116.547 32.757 117.206 32.4733 117.743 31.906C118.295 31.3386 118.571 30.5643 118.571 29.583Z" fill="white"/>
<path d="M131.191 36.184C129.934 36.184 128.799 35.9156 127.787 35.379C126.79 34.8423 126.001 34.0756 125.418 33.079C124.851 32.0823 124.567 30.917 124.567 29.583C124.567 28.2643 124.858 27.1066 125.441 26.11C126.024 25.098 126.821 24.3236 127.833 23.787C128.845 23.2503 129.98 22.982 131.237 22.982C132.494 22.982 133.629 23.2503 134.641 23.787C135.653 24.3236 136.45 25.098 137.033 26.11C137.616 27.1066 137.907 28.2643 137.907 29.583C137.907 30.9016 137.608 32.067 137.01 33.079C136.427 34.0756 135.622 34.8423 134.595 35.379C133.583 35.9156 132.448 36.184 131.191 36.184ZM131.191 32.78C131.942 32.78 132.579 32.504 133.1 31.952C133.637 31.4 133.905 30.6103 133.905 29.583C133.905 28.5556 133.644 27.766 133.123 27.214C132.617 26.662 131.988 26.386 131.237 26.386C130.47 26.386 129.834 26.662 129.328 27.214C128.822 27.7506 128.569 28.5403 128.569 29.583C128.569 30.6103 128.814 31.4 129.305 31.952C129.811 32.504 130.44 32.78 131.191 32.78Z" fill="white"/>
<path d="M147.813 23.028C149.316 23.028 150.512 23.5186 151.401 24.5C152.306 25.466 152.758 26.8 152.758 28.502V36H148.848V29.031C148.848 28.1723 148.626 27.5053 148.181 27.03C147.737 26.5546 147.139 26.317 146.387 26.317C145.636 26.317 145.038 26.5546 144.593 27.03C144.149 27.5053 143.926 28.1723 143.926 29.031V36H139.993V23.166H143.926V24.868C144.325 24.3006 144.862 23.856 145.536 23.534C146.211 23.1966 146.97 23.028 147.813 23.028Z" fill="white"/>
<path d="M171.98 19.854V23.005H167.702V36H163.769V23.005H159.491V19.854H171.98Z" fill="white"/>
<path d="M186.052 29.376C186.052 29.744 186.029 30.1273 185.983 30.526H177.082C177.144 31.3233 177.397 31.9366 177.841 32.366C178.301 32.78 178.861 32.987 179.52 32.987C180.502 32.987 181.184 32.573 181.567 31.745H185.753C185.539 32.5883 185.148 33.3473 184.58 34.022C184.028 34.6966 183.331 35.2256 182.487 35.609C181.644 35.9923 180.701 36.184 179.658 36.184C178.401 36.184 177.282 35.9156 176.3 35.379C175.319 34.8423 174.552 34.0756 174 33.079C173.448 32.0823 173.172 30.917 173.172 29.583C173.172 28.249 173.441 27.0836 173.977 26.087C174.529 25.0903 175.296 24.3236 176.277 23.787C177.259 23.2503 178.386 22.982 179.658 22.982C180.9 22.982 182.004 23.2426 182.97 23.764C183.936 24.2853 184.688 25.029 185.224 25.995C185.776 26.961 186.052 28.088 186.052 29.376ZM182.027 28.341C182.027 27.6663 181.797 27.1296 181.337 26.731C180.877 26.3323 180.302 26.133 179.612 26.133C178.953 26.133 178.393 26.3246 177.933 26.708C177.489 27.0913 177.213 27.6356 177.105 28.341H182.027Z" fill="white"/>
<path d="M187.345 29.583C187.345 28.249 187.614 27.0836 188.15 26.087C188.702 25.0903 189.461 24.3236 190.427 23.787C191.409 23.2503 192.528 22.982 193.785 22.982C195.395 22.982 196.737 23.4036 197.81 24.247C198.899 25.0903 199.612 26.2786 199.949 27.812H195.763C195.411 26.8306 194.728 26.34 193.716 26.34C192.996 26.34 192.421 26.6236 191.991 27.191C191.562 27.743 191.347 28.5403 191.347 29.583C191.347 30.6256 191.562 31.4306 191.991 31.998C192.421 32.55 192.996 32.826 193.716 32.826C194.728 32.826 195.411 32.3353 195.763 31.354H199.949C199.612 32.8566 198.899 34.0373 197.81 34.896C196.722 35.7546 195.38 36.184 193.785 36.184C192.528 36.184 191.409 35.9156 190.427 35.379C189.461 34.8423 188.702 34.0756 188.15 33.079C187.614 32.0823 187.345 30.917 187.345 29.583Z" fill="white"/>
<path d="M209.942 23.028C211.414 23.028 212.595 23.5186 213.484 24.5C214.373 25.466 214.818 26.8 214.818 28.502V36H210.908V29.031C210.908 28.1723 210.686 27.5053 210.241 27.03C209.796 26.5546 209.198 26.317 208.447 26.317C207.696 26.317 207.098 26.5546 206.653 27.03C206.208 27.5053 205.986 28.1723 205.986 29.031V36H202.053V18.98H205.986V24.891C206.385 24.3236 206.929 23.8713 207.619 23.534C208.309 23.1966 209.083 23.028 209.942 23.028Z" fill="white"/>
<path d="M225.371 23.028C226.874 23.028 228.07 23.5186 228.959 24.5C229.864 25.466 230.316 26.8 230.316 28.502V36H226.406V29.031C226.406 28.1723 226.184 27.5053 225.739 27.03C225.294 26.5546 224.696 26.317 223.945 26.317C223.194 26.317 222.596 26.5546 222.151 27.03C221.706 27.5053 221.484 28.1723 221.484 29.031V36H217.551V23.166H221.484V24.868C221.883 24.3006 222.419 23.856 223.094 23.534C223.769 23.1966 224.528 23.028 225.371 23.028Z" fill="white"/>
<path d="M238.891 36.184C237.634 36.184 236.499 35.9156 235.487 35.379C234.49 34.8423 233.701 34.0756 233.118 33.079C232.551 32.0823 232.267 30.917 232.267 29.583C232.267 28.2643 232.558 27.1066 233.141 26.11C233.724 25.098 234.521 24.3236 235.533 23.787C236.545 23.2503 237.68 22.982 238.937 22.982C240.194 22.982 241.329 23.2503 242.341 23.787C243.353 24.3236 244.15 25.098 244.733 26.11C245.316 27.1066 245.607 28.2643 245.607 29.583C245.607 30.9016 245.308 32.067 244.71 33.079C244.127 34.0756 243.322 34.8423 242.295 35.379C241.283 35.9156 240.148 36.184 238.891 36.184ZM238.891 32.78C239.642 32.78 240.279 32.504 240.8 31.952C241.337 31.4 241.605 30.6103 241.605 29.583C241.605 28.5556 241.344 27.766 240.823 27.214C240.317 26.662 239.688 26.386 238.937 26.386C238.17 26.386 237.534 26.662 237.028 27.214C236.522 27.7506 236.269 28.5403 236.269 29.583C236.269 30.6103 236.514 31.4 237.005 31.952C237.511 32.504 238.14 32.78 238.891 32.78Z" fill="white"/>
<path d="M251.627 18.98V36H247.694V18.98H251.627Z" fill="white"/>
<path d="M260.319 36.184C259.061 36.184 257.927 35.9156 256.915 35.379C255.918 34.8423 255.128 34.0756 254.546 33.079C253.978 32.0823 253.695 30.917 253.695 29.583C253.695 28.2643 253.986 27.1066 254.569 26.11C255.151 25.098 255.949 24.3236 256.961 23.787C257.973 23.2503 259.107 22.982 260.365 22.982C261.622 22.982 262.757 23.2503 263.769 23.787C264.781 24.3236 265.578 25.098 266.161 26.11C266.743 27.1066 267.035 28.2643 267.035 29.583C267.035 30.9016 266.736 32.067 266.138 33.079C265.555 34.0756 264.75 34.8423 263.723 35.379C262.711 35.9156 261.576 36.184 260.319 36.184ZM260.319 32.78C261.07 32.78 261.706 32.504 262.228 31.952C262.764 31.4 263.033 30.6103 263.033 29.583C263.033 28.5556 262.772 27.766 262.251 27.214C261.745 26.662 261.116 26.386 260.365 26.386C259.598 26.386 258.962 26.662 258.456 27.214C257.95 27.7506 257.697 28.5403 257.697 29.583C257.697 30.6103 257.942 31.4 258.433 31.952C258.939 32.504 259.567 32.78 260.319 32.78Z" fill="white"/>
<path d="M273.997 22.982C274.902 22.982 275.692 23.166 276.366 23.534C277.056 23.902 277.585 24.385 277.953 24.983V23.166H281.886V35.977C281.886 37.1576 281.649 38.2233 281.173 39.174C280.713 40.14 280 40.9066 279.034 41.474C278.084 42.0413 276.895 42.325 275.469 42.325C273.568 42.325 272.027 41.8726 270.846 40.968C269.666 40.0786 268.991 38.8673 268.822 37.334H272.709C272.832 37.8246 273.123 38.208 273.583 38.484C274.043 38.7753 274.611 38.921 275.285 38.921C276.098 38.921 276.742 38.6833 277.217 38.208C277.708 37.748 277.953 37.0043 277.953 35.977V34.16C277.57 34.758 277.041 35.2486 276.366 35.632C275.692 36 274.902 36.184 273.997 36.184C272.939 36.184 271.981 35.9156 271.122 35.379C270.264 34.827 269.581 34.0526 269.075 33.056C268.585 32.044 268.339 30.8786 268.339 29.56C268.339 28.2413 268.585 27.0836 269.075 26.087C269.581 25.0903 270.264 24.3236 271.122 23.787C271.981 23.2503 272.939 22.982 273.997 22.982ZM277.953 29.583C277.953 28.6016 277.677 27.8273 277.125 27.26C276.589 26.6926 275.929 26.409 275.147 26.409C274.365 26.409 273.698 26.6926 273.146 27.26C272.61 27.812 272.341 28.5786 272.341 29.56C272.341 30.5413 272.61 31.3233 273.146 31.906C273.698 32.4733 274.365 32.757 275.147 32.757C275.929 32.757 276.589 32.4733 277.125 31.906C277.677 31.3386 277.953 30.5643 277.953 29.583Z" fill="white"/>
<path d="M297.842 23.166L289.792 42.095H285.56L288.504 35.563L283.283 23.166H287.676L290.643 31.193L293.587 23.166H297.842Z" fill="white"/>
<path fill-rule="evenodd" clip-rule="evenodd" d="M24 0L48 13.999V42.001L24 56L0 42.001V13.999L24 0ZM6.1856 17.611V38.389L24 48.78L41.8144 38.389V17.611L24 7.22L6.1856 17.611Z" fill="#65BC7B"/>
</g>
<defs>
<clipPath id="clip0_1108_1065">
<rect width="298" height="56" fill="white"/>
</clipPath>
</defs>
</svg>
